# xmcd CD database file
#
# Track frame offsets:
#	150
#	12545
#	24435
#	39327
#	49430
#	62455
#	78837
#	90710
#	102015
#	112972
#	127035
#	140622
#
# Disc length: 2034 seconds
#
# Revision: 0
# Processed by: cddbd v1.5.1PL0 Copyright (c) Steve Scherf et al.
# Submitted via: CDex 1.50beta10
#
DISCID=9607f00c
DTITLE=Tammy Wynette - Inspirational Favorites
DYEAR=1998
DGENRE=Country
TTITLE0=You'll Never Walk Alone
TTITLE1=Count Your Blessings Instead Of Sheep
TTITLE2=Just A Closer Walk With Thee
TTITLE3=I Believe
TTITLE4=Battle Hymn Of The Republic
TTITLE5=How Great Thou Art
TTITLE6=He's Got The Whole World In His Hands
TTITLE7=It Is No Secret (What God Can Do)
TTITLE8=Crying In The Chapel
TTITLE9=He
TTITLE10=May The Good Lord Bless And Keep You
TTITLE11=Precious Memories
EXTD=YEAR: 1998
EXTT0=
EXTT1=
EXTT2=
EXTT3=
EXTT4=
EXTT5=
EXTT6=
EXTT7=
EXTT8=
EXTT9=
EXTT10=
EXTT11=
PLAYORDER=
